<svg width="806" height="489" viewBox="0 0 806 489" fill="none" xmlns="http://www.w3.org/2000/svg">
<path d="M57.8813 12.7765L56.6232 1.56804L46.6025 2.69281V12.7765H57.8813ZM214.749 250.967V262.246H226.028V250.967H214.749ZM166.756 186.531L167.607 175.284L166.756 186.531ZM433.609 295.628L433.63 284.349L433.62 284.349H433.609V295.628ZM246.745 295.763L246.468 307.038L246.612 307.042L246.757 307.042L246.745 295.763ZM302.515 3L313.442 0.204008L291.436 0.889377L302.515 3ZM510.932 174.977H522.211L499.667 174.417L510.932 174.977ZM95.0909 246.301L83.8141 246.089L83.8121 246.195V246.301H95.0909ZM69.1601 308.07V12.7765H46.6025V308.07H69.1601ZM57.8813 12.7765C59.1394 23.9849 59.1355 23.9853 59.132 23.9857C59.1314 23.9858 59.1283 23.9861 59.127 23.9863C59.1245 23.9866 59.1237 23.9867 59.1244 23.9866C59.1259 23.9864 59.1338 23.9855 59.1481 23.984C59.1767 23.981 59.2306 23.9754 59.3089 23.9676C59.4658 23.952 59.7205 23.9278 60.0665 23.8981C60.7588 23.8388 61.8146 23.7582 63.1817 23.6827C65.9196 23.5314 69.8835 23.4018 74.6589 23.5009C84.2819 23.7005 96.8478 24.8232 109.21 28.3678C121.607 31.9226 133.108 37.712 141.452 46.7617C149.574 55.5718 155.477 68.2943 155.477 87.4332H178.034C178.034 63.1334 170.328 44.8045 158.037 31.4717C145.966 18.3785 130.248 10.9336 115.427 6.68391C100.57 2.42397 85.9178 1.17196 75.1269 0.948067C69.6953 0.835371 65.1534 0.981718 61.9373 1.1594C60.3273 1.24835 59.0441 1.34546 58.1415 1.42276C57.6901 1.46142 57.3335 1.49517 57.0783 1.52053C56.9507 1.53321 56.8484 1.54379 56.7723 1.55186C56.7342 1.55589 56.7027 1.55929 56.6778 1.562C56.6654 1.56336 56.6546 1.56454 56.6455 1.56555C56.6409 1.56606 56.6354 1.56668 56.6331 1.56693C56.6279 1.5675 56.6232 1.56804 57.8813 12.7765ZM155.477 87.4332C155.477 104.122 147.57 116.286 134.308 125.744C120.632 135.497 101.691 141.95 81.626 146.039C61.7357 150.091 41.6915 151.635 26.5165 152.151C18.9559 152.407 12.6656 152.407 8.28644 152.343C6.09813 152.311 4.39062 152.264 3.24431 152.225C2.67125 152.205 2.23877 152.188 1.95692 152.176C1.816 152.17 1.71277 152.165 1.64848 152.162C1.61634 152.161 1.59394 152.16 1.58144 152.159C1.57519 152.159 1.57141 152.159 1.57013 152.159C1.56948 152.159 1.5704 152.159 1.57007 152.159C1.57161 152.159 1.57378 152.159 1 163.423C0.42622 174.687 0.429652 174.687 0.433714 174.688C0.435912 174.688 0.440615 174.688 0.44501 174.688C0.453804 174.689 0.465123 174.689 0.478947 174.69C0.506594 174.691 0.544262 174.693 0.591792 174.695C0.686849 174.7 0.821367 174.706 0.994075 174.713C1.33947 174.728 1.83774 174.748 2.47872 174.77C3.76047 174.813 5.61411 174.864 7.95818 174.899C12.6438 174.967 19.3032 174.966 27.2821 174.695C43.1864 174.155 64.5811 172.533 86.1296 168.142C107.504 163.787 130.002 156.521 147.405 144.11C165.221 131.404 178.034 112.961 178.034 87.4332H155.477ZM105.208 262.246H214.749V239.688H105.208V262.246ZM226.028 250.967C226.028 236.498 224.302 218.799 216.007 203.989C207.224 188.307 191.769 177.113 167.607 175.284L165.905 197.778C182.848 199.06 191.389 206.197 196.327 215.012C201.752 224.698 203.47 237.662 203.47 250.967H226.028ZM201.238 306.942C219.209 306.875 230.558 306.9 237.4 306.941C240.821 306.962 243.111 306.987 244.536 307.006C245.248 307.016 245.744 307.024 246.055 307.03C246.211 307.033 246.32 307.035 246.388 307.036C246.422 307.037 246.445 307.038 246.458 307.038C246.465 307.038 246.469 307.038 246.47 307.038C246.471 307.038 246.472 307.038 246.471 307.038C246.471 307.038 246.471 307.038 246.47 307.038C246.47 307.038 246.469 307.038 246.469 307.038C246.469 307.038 246.468 307.038 246.745 295.763C247.022 284.487 247.021 284.487 247.02 284.487C247.02 284.487 247.019 284.487 247.019 284.487C247.018 284.487 247.017 284.487 247.015 284.487C247.013 284.487 247.009 284.487 247.005 284.487C246.998 284.487 246.987 284.487 246.975 284.486C246.95 284.486 246.915 284.485 246.87 284.484C246.78 284.482 246.649 284.479 246.473 284.476C246.121 284.47 245.589 284.461 244.843 284.451C243.352 284.43 241.004 284.405 237.537 284.384C230.603 284.342 219.177 284.317 201.153 284.385L201.238 306.942ZM257.825 297.873L313.595 5.11062L291.436 0.889377L235.665 293.652L257.825 297.873ZM246.757 307.042L377.406 306.906L377.382 284.349L246.733 284.484L246.757 307.042ZM377.394 306.906H433.609V284.349H377.394V306.906ZM291.589 5.79599L366.467 298.424L388.321 292.832L313.442 0.204008L291.589 5.79599ZM401.613 172.977C390.392 171.84 390.392 171.842 390.391 171.845C390.391 171.847 390.391 171.85 390.39 171.853C390.39 171.86 390.389 171.868 390.388 171.878C390.386 171.898 390.383 171.926 390.38 171.961C390.373 172.03 390.363 172.129 390.351 172.257C390.327 172.511 390.292 172.879 390.25 173.352C390.166 174.299 390.049 175.669 389.918 177.402C389.657 180.866 389.336 185.79 389.094 191.692C388.611 203.451 388.432 219.281 389.703 235.232C390.957 250.961 393.687 267.812 399.547 281.063C405.39 294.277 415.932 306.942 433.632 306.906L433.586 284.349C429.067 284.358 424.499 281.714 420.177 271.94C415.871 262.202 413.381 248.385 412.19 233.44C411.017 218.717 411.171 203.868 411.633 192.616C411.863 187.012 412.167 182.348 412.412 179.1C412.535 177.477 412.642 176.21 412.718 175.359C412.756 174.933 412.786 174.612 412.807 174.402C412.817 174.297 412.824 174.22 412.829 174.172C412.831 174.148 412.833 174.131 412.834 174.121C412.834 174.117 412.835 174.114 412.835 174.113C412.835 174.112 412.835 174.113 412.835 174.112C412.835 174.113 412.834 174.115 401.613 172.977ZM433.587 306.906C477.219 306.989 499.054 269.817 509.679 239.032C515.188 223.068 518.298 207.242 520.037 195.5C520.91 189.604 521.447 184.677 521.766 181.198C521.926 179.458 522.032 178.077 522.099 177.114C522.132 176.632 522.156 176.255 522.172 175.99C522.179 175.857 522.185 175.753 522.189 175.677C522.192 175.639 522.193 175.608 522.194 175.585C522.195 175.573 522.195 175.563 522.196 175.555C522.196 175.551 522.196 175.546 522.196 175.544C522.197 175.54 522.197 175.537 510.932 174.977C499.667 174.417 499.667 174.415 499.667 174.412C499.667 174.412 499.667 174.41 499.667 174.41C499.667 174.409 499.667 174.41 499.667 174.413C499.667 174.419 499.666 174.432 499.665 174.452C499.663 174.493 499.659 174.561 499.653 174.657C499.642 174.849 499.623 175.15 499.595 175.553C499.539 176.36 499.447 177.573 499.303 179.135C499.016 182.262 498.527 186.77 497.723 192.195C496.108 203.097 493.261 217.458 488.355 231.674C478.149 261.248 461.323 284.401 433.63 284.349L433.587 306.906ZM499.653 174.977V308.07H522.211V174.977H499.653ZM167.607 175.284C145.405 173.604 124.743 182.36 109.698 195.508C94.7854 208.539 84.1725 226.992 83.8141 246.089L106.368 246.512C106.578 235.331 113.108 222.485 124.541 212.494C135.842 202.619 150.727 196.629 165.905 197.778L167.607 175.284ZM83.8121 246.301C83.8121 261.54 86.2672 274.169 92.4523 284.008C98.8741 294.223 108.375 299.965 119.319 303.129C129.894 306.188 142.397 307.014 155.874 307.197C169.138 307.377 185.453 306.906 202.306 306.906V284.349C184.165 284.349 169.58 284.823 156.179 284.641C142.992 284.463 133.066 283.623 125.586 281.46C118.474 279.403 114.295 276.368 111.55 272.002C108.568 267.259 106.37 259.502 106.37 246.301H83.8121Z" fill="#EEF1FF"/>
<path d="M497.156 132.316H651.58L550.705 294.739C550.705 294.739 710.905 277.185 710.905 399.836C710.905 498.489 510.932 525.819 510.932 340.51" stroke="#EEF1FF" stroke-width="22.5576" stroke-linejoin="bevel"/>
<path d="M805.742 54.3523L786.627 24.7749L672.939 111.208L681.16 125.65L805.742 54.3523Z" fill="#EEF1FF"/>
<path d="M399.746 339.967L416.969 299.905" stroke="#EEF1FF" stroke-width="18.7204"/>
<path d="M228.266 339.967L211.043 299.905" stroke="#EEF1FF" stroke-width="18.7204"/>
</svg>
