<svg width="78" height="48" viewBox="0 0 78 48" fill="none" xmlns="http://www.w3.org/2000/svg">
<path d="M6.40012 1.92815L6.25785 0.660706L5.12472 0.787894V1.92815H6.40012ZM21.2926 24.5411V25.8165H22.568V24.5411H21.2926ZM16.7363 18.4238L16.8325 17.1521L16.7363 18.4238ZM42.0704 28.7811L42.0728 27.5057H42.0704V28.7811ZM24.3302 28.7939L24.2989 30.0689L24.3152 30.0693L24.3315 30.0693L24.3302 28.7939ZM29.6248 1L30.8604 0.683832L28.372 0.761333L29.6248 1ZM49.4112 17.3269H50.6866L48.1374 17.2636L49.4112 17.3269ZM9.93267 24.0982L8.6575 24.0742L8.65728 24.0862V24.0982H9.93267ZM7.67552 29.9623V1.92815H5.12472V29.9623H7.67552ZM6.40012 1.92815C6.54238 3.19558 6.54193 3.19563 6.54152 3.19568C6.54144 3.19569 6.54106 3.19573 6.54089 3.19575C6.54055 3.19579 6.54036 3.19581 6.54033 3.19581C6.54026 3.19582 6.5408 3.19576 6.54194 3.19564C6.54422 3.1954 6.54889 3.19491 6.55589 3.19422C6.56988 3.19282 6.59314 3.19061 6.62503 3.18788C6.68885 3.18241 6.78703 3.17491 6.9146 3.16786C7.1702 3.15374 7.54128 3.14158 7.98869 3.15086C8.89166 3.1696 10.0657 3.27501 11.2167 3.60503C12.3717 3.93621 13.4253 4.47082 14.1835 5.29329C14.9168 6.08866 15.4609 7.24564 15.4609 9.0158H18.0117C18.0117 6.66204 17.2637 4.8711 16.059 3.56431C14.8792 2.28461 13.3488 1.56279 11.9197 1.15304C10.4867 0.742125 9.07665 0.622091 8.0416 0.600615C7.51999 0.589793 7.08356 0.603838 6.77389 0.620946C6.61884 0.629512 6.49495 0.638881 6.40736 0.646383C6.36355 0.650135 6.32876 0.653425 6.30365 0.655921C6.29109 0.65717 6.28094 0.65822 6.27328 0.659031C6.26945 0.659436 6.26624 0.659782 6.26367 0.660063C6.26238 0.660203 6.26125 0.660328 6.26028 0.660435C6.2598 0.660489 6.25919 0.660556 6.25895 0.660583C6.25838 0.660647 6.25785 0.660706 6.40012 1.92815ZM15.4609 9.0158C15.4609 10.52 14.7548 11.6178 13.537 12.4863C12.2724 13.3881 10.5065 13.9934 8.6135 14.3791C6.74023 14.7608 4.84955 14.9067 3.41551 14.9554C2.70152 14.9796 2.10768 14.9795 1.69473 14.9735C1.48839 14.9705 1.32761 14.9661 1.22001 14.9624C1.16622 14.9606 1.12576 14.959 1.09958 14.9578C1.08649 14.9573 1.07697 14.9568 1.07115 14.9566C1.06824 14.9564 1.06625 14.9563 1.0652 14.9563C1.06468 14.9563 1.06439 14.9562 1.06433 14.9562C1.0643 14.9562 1.06444 14.9562 1.06443 14.9562C1.06463 14.9563 1.06488 14.9563 1 16.23C0.935117 17.5038 0.935494 17.5038 0.935931 17.5038C0.936156 17.5038 0.936654 17.5038 0.937105 17.5039C0.938008 17.5039 0.939151 17.504 0.940532 17.504C0.943294 17.5042 0.947009 17.5043 0.951661 17.5046C0.960964 17.505 0.974019 17.5056 0.990703 17.5063C1.02407 17.5077 1.07197 17.5096 1.13344 17.5117C1.25635 17.5159 1.43366 17.5208 1.65761 17.5241C2.10523 17.5306 2.74079 17.5305 3.50208 17.5047C5.01859 17.4532 7.06198 17.2984 9.12277 16.8786C11.1638 16.4627 13.332 15.7654 15.018 14.5631C16.7507 13.3274 18.0117 11.5195 18.0117 9.0158H15.4609ZM10.8932 25.8165H21.2926V23.2657H10.8932V25.8165ZM22.568 24.5411C22.568 23.157 22.4041 21.4337 21.5906 19.9812C20.7219 18.4301 19.1919 17.3306 16.8325 17.1521L16.64 19.6956C18.1831 19.8123 18.9313 20.4531 19.3651 21.2277C19.8542 22.1008 20.0172 23.2885 20.0172 24.5411H22.568ZM20.0107 30.0599C21.7163 30.0535 22.7931 30.0558 23.4418 30.0598C23.7661 30.0617 23.983 30.0641 24.1177 30.0659C24.185 30.0668 24.2317 30.0676 24.2609 30.0682C24.2755 30.0684 24.2857 30.0686 24.2919 30.0688C24.295 30.0688 24.2971 30.0689 24.2983 30.0689C24.2988 30.0689 24.2992 30.0689 24.2993 30.0689C24.2993 30.0689 24.2993 30.0689 24.2993 30.0689C24.2992 30.0689 24.2992 30.0689 24.2991 30.0689C24.2991 30.0689 24.299 30.0689 24.299 30.0689C24.299 30.0689 24.2989 30.0689 24.3302 28.7939C24.3615 27.5189 24.3614 27.5189 24.3613 27.5189C24.3613 27.5189 24.3612 27.5189 24.3612 27.5189C24.3611 27.5189 24.3609 27.5189 24.3608 27.5189C24.3605 27.5189 24.3602 27.5189 24.3598 27.5189C24.359 27.5188 24.358 27.5188 24.3567 27.5188C24.3542 27.5187 24.3508 27.5186 24.3464 27.5186C24.3377 27.5184 24.3251 27.5181 24.3082 27.5178C24.2744 27.5172 24.2235 27.5163 24.1524 27.5154C24.0103 27.5134 23.7869 27.511 23.4572 27.509C22.7981 27.505 21.7127 27.5027 20.0011 27.5091L20.0107 30.0599ZM25.5831 29.0326L30.8777 1.23867L28.372 0.761333L23.0773 28.5552L25.5831 29.0326ZM24.3315 30.0693L36.7349 30.0565L36.7323 27.5057L24.3289 27.5185L24.3315 30.0693ZM36.7336 30.0565H42.0704V27.5057H36.7336V30.0565ZM28.3893 1.31617L35.498 29.0972L37.9692 28.4649L30.8604 0.683832L28.3893 1.31617ZM39.0329 17.1371C37.764 17.0084 37.7639 17.0087 37.7639 17.009C37.7639 17.0092 37.7638 17.0095 37.7638 17.0099C37.7638 17.0105 37.7637 17.0113 37.7636 17.0123C37.7634 17.0144 37.7631 17.0171 37.7628 17.0205C37.7621 17.0273 37.7612 17.0369 37.76 17.0492C37.7576 17.0738 37.7543 17.1091 37.7503 17.1545C37.7422 17.2452 37.7311 17.3762 37.7186 17.5417C37.6936 17.8725 37.663 18.3424 37.6399 18.9053C37.5939 20.0264 37.5767 21.5381 37.6982 23.0636C37.8178 24.5639 38.0792 26.1912 38.6495 27.4811C39.2181 28.7668 40.2731 30.0601 42.073 30.0565L42.0678 27.5057C41.7584 27.5063 41.3789 27.3462 40.9824 26.4495C40.5877 25.5569 40.3534 24.2727 40.2409 22.861C40.1305 21.4744 40.1449 20.0735 40.1885 19.0099C40.2102 18.4806 40.239 18.0402 40.2621 17.7338C40.2737 17.5807 40.2838 17.4613 40.291 17.3814C40.2945 17.3414 40.2973 17.3113 40.2992 17.2918C40.3001 17.282 40.3008 17.2749 40.3013 17.2705C40.3015 17.2683 40.3016 17.2668 40.3017 17.266C40.3018 17.2656 40.3018 17.2654 40.3018 17.2653C40.3018 17.2653 40.3018 17.2654 40.3018 17.2654C40.3018 17.2655 40.3017 17.2657 39.0329 17.1371ZM42.068 30.0565C46.3548 30.0646 48.4732 26.4085 49.4856 23.4749C50.0142 21.9434 50.3118 20.4276 50.478 19.3053C50.5616 18.7412 50.6129 18.2697 50.6436 17.9363C50.6589 17.7694 50.6691 17.6367 50.6755 17.5439C50.6787 17.4975 50.681 17.461 50.6825 17.4352C50.6833 17.4222 50.6839 17.412 50.6843 17.4044C50.6845 17.4007 50.6847 17.3976 50.6848 17.3952C50.6848 17.394 50.6849 17.393 50.6849 17.3922C50.685 17.3918 50.685 17.3913 50.685 17.391C50.685 17.3906 50.685 17.3902 49.4112 17.3269C48.1374 17.2636 48.1374 17.2633 48.1374 17.263C48.1374 17.263 48.1374 17.2628 48.1374 17.2627C48.1374 17.2626 48.1374 17.2626 48.1374 17.2628C48.1374 17.2632 48.1373 17.2643 48.1372 17.266C48.1371 17.2695 48.1367 17.2757 48.1362 17.2844C48.1352 17.302 48.1334 17.3299 48.1308 17.3674C48.1256 17.4426 48.1169 17.5563 48.1035 17.703C48.0765 17.9966 48.0304 18.4208 47.9548 18.9316C47.8026 19.9589 47.5347 21.309 47.0744 22.6427C46.1092 25.4394 44.5573 27.5104 42.0728 27.5057L42.068 30.0565ZM48.1358 17.3269V29.9623H50.6866V17.3269H48.1358ZM16.8325 17.1521C14.6611 16.9877 12.647 17.8441 11.1847 19.1219C9.73746 20.3867 8.69288 22.1894 8.6575 24.0742L11.2078 24.1221C11.2264 23.1324 11.8093 21.9636 12.8632 21.0427C13.9021 20.1349 15.2629 19.5914 16.64 19.6956L16.8325 17.1521ZM8.65728 24.0982C8.65728 25.5634 8.89269 26.8066 9.50893 27.7868C10.152 28.8097 11.1022 29.3793 12.1759 29.6898C13.2079 29.9883 14.4184 30.0667 15.7004 30.084C16.9585 30.1011 18.523 30.0565 20.1114 30.0565V27.5057C18.3774 27.5057 17.0084 27.5507 15.735 27.5335C14.4856 27.5166 13.5667 27.4367 12.8846 27.2395C12.2442 27.0543 11.8957 26.7907 11.6684 26.4292C11.4144 26.0252 11.2081 25.333 11.2081 24.0982H8.65728Z" fill="#211F20"/>
<path d="M48.1035 13.2766H62.764L53.1872 28.6965C53.1872 28.6965 68.3961 27.03 68.3961 38.674C68.3961 48.0399 49.4113 50.6344 49.4114 33.0419" stroke="#211F20" stroke-width="2.5508" stroke-linejoin="bevel"/>
<path d="M77.4007 5.87487L75.5859 3.06689L64.7928 11.2725L65.5733 12.6437L77.4007 5.87487Z" fill="#211F20"/>
<path d="M38.8555 32.9906L40.4905 29.1873" stroke="#211F20" stroke-width="2.11688"/>
<path d="M22.5762 32.9906L20.9411 29.1873" stroke="#211F20" stroke-width="2.11688"/>
</svg>
