<svg width="124" height="76" viewBox="0 0 124 76" fill="none" xmlns="http://www.w3.org/2000/svg">
<path d="M9.69397 2.49428L9.50168 0.781132L7.97007 0.953048V2.49428H9.69397ZM33.6703 38.9003V40.6242H35.3942V38.9003H33.6703ZM26.3348 29.0516L26.4649 27.3327L26.3348 29.0516ZM67.1217 45.7264L67.125 44.0025H67.1217V45.7264ZM38.5607 45.7471L38.5184 47.4705L38.5404 47.471L38.5625 47.471L38.5607 45.7471ZM47.0848 1L48.7549 0.572649L45.3914 0.677404L47.0848 1ZM78.9401 27.2857H80.664L77.2183 27.2002L78.9401 27.2857ZM15.3812 38.1871L13.6576 38.1548L13.6573 38.1709V38.1871H15.3812ZM11.4179 47.6282V2.49428H7.97007V47.6282H11.4179ZM9.69397 2.49428C9.88626 4.20742 9.88567 4.20749 9.88513 4.20755C9.88504 4.20756 9.88457 4.20761 9.88438 4.20763C9.884 4.20767 9.88386 4.20769 9.88398 4.20767C9.88421 4.20765 9.88542 4.20752 9.8876 4.20729C9.89196 4.20682 9.9002 4.20597 9.91218 4.20478C9.93615 4.20239 9.97508 4.19868 10.028 4.19416C10.1338 4.18509 10.2952 4.17277 10.5041 4.16123C10.9226 4.13811 11.5284 4.11829 12.2583 4.13344C13.7292 4.16395 15.6498 4.33555 17.5392 4.87731C19.4341 5.42065 21.192 6.30552 22.4672 7.68872C23.7086 9.03529 24.6109 10.9799 24.6109 13.9051H28.0587C28.0587 10.191 26.8808 7.38957 25.0021 5.35173C23.1572 3.35052 20.7548 2.21261 18.4895 1.56306C16.2188 0.911957 13.9792 0.720595 12.3299 0.686374C11.4997 0.669149 10.8055 0.691517 10.3139 0.718675C10.0678 0.732271 9.87169 0.747113 9.73375 0.758928C9.66475 0.764837 9.61024 0.769995 9.57124 0.773871C9.55173 0.775809 9.5361 0.777427 9.52447 0.778659C9.51865 0.779276 9.51383 0.779795 9.51003 0.78021C9.50813 0.780418 9.50648 0.780599 9.50509 0.780753C9.50439 0.78083 9.50354 0.780925 9.50319 0.780963C9.50241 0.781051 9.50168 0.781132 9.69397 2.49428ZM24.6109 13.9051C24.6109 16.456 23.4024 18.315 21.3753 19.7607C19.285 21.2513 16.39 22.2378 13.3232 22.8626C10.2831 23.4821 7.21945 23.718 4.90005 23.7968C3.74445 23.8361 2.78301 23.836 2.11369 23.8262C1.77922 23.8214 1.51824 23.8141 1.34303 23.8082C1.25544 23.8052 1.18934 23.8025 1.14626 23.8007C1.12472 23.7998 1.10894 23.7991 1.09912 23.7986C1.0942 23.7984 1.09078 23.7982 1.08887 23.7981C1.08791 23.7981 1.08734 23.798 1.08714 23.798C1.08704 23.798 1.08718 23.798 1.08713 23.798C1.08737 23.798 1.0877 23.798 1 25.5197C0.912301 27.2414 0.912826 27.2414 0.913446 27.2414C0.913782 27.2415 0.914501 27.2415 0.915173 27.2415C0.916517 27.2416 0.918247 27.2417 0.92036 27.2418C0.924586 27.242 0.930343 27.2423 0.937608 27.2426C0.952137 27.2433 0.972697 27.2442 0.999094 27.2454C1.05189 27.2476 1.12804 27.2506 1.22601 27.254C1.42192 27.2606 1.70524 27.2685 2.06352 27.2737C2.77969 27.2841 3.79754 27.284 5.01707 27.2426C7.44794 27.1601 10.718 26.9121 14.0116 26.241C17.2784 25.5754 20.7172 24.4647 23.3771 22.5678C26.1003 20.6258 28.0587 17.8068 28.0587 13.9051H24.6109ZM16.9276 40.6242H33.6703V37.1764H16.9276V40.6242ZM35.3942 38.9003C35.3942 36.6888 35.1305 33.9836 33.8626 31.7199C32.5202 29.3231 30.1579 27.6121 26.4649 27.3327L26.2047 30.7706C28.7944 30.9666 30.0999 32.0574 30.8545 33.4048C31.6838 34.8853 31.9464 36.8666 31.9464 38.9003H35.3942ZM31.6052 47.4558C34.352 47.4455 36.0866 47.4493 37.1324 47.4556C37.6552 47.4588 38.0052 47.4626 38.2231 47.4655C38.3319 47.467 38.4076 47.4683 38.4552 47.4692C38.479 47.4696 38.4958 47.47 38.5061 47.4702C38.5112 47.4703 38.5148 47.4704 38.5168 47.4704C38.5178 47.4705 38.5185 47.4705 38.5187 47.4705C38.5189 47.4705 38.5189 47.4705 38.5188 47.4705C38.5188 47.4705 38.5188 47.4705 38.5187 47.4705C38.5186 47.4705 38.5186 47.4705 38.5186 47.4705C38.5185 47.4705 38.5184 47.4705 38.5607 45.7471C38.603 44.0237 38.6029 44.0237 38.6028 44.0237C38.6027 44.0237 38.6026 44.0237 38.6025 44.0237C38.6024 44.0237 38.6022 44.0237 38.602 44.0237C38.6016 44.0237 38.6011 44.0237 38.6005 44.0236C38.5993 44.0236 38.5977 44.0236 38.5958 44.0235C38.592 44.0234 38.5867 44.0233 38.5798 44.0232C38.566 44.0229 38.546 44.0225 38.5191 44.022C38.4654 44.021 38.384 44.0196 38.27 44.0181C38.0421 44.015 37.6832 44.0111 37.1533 44.0079C36.0934 44.0015 34.3471 43.9977 31.5922 44.008L31.6052 47.4558ZM40.2541 46.0697L48.7783 1.3226L45.3914 0.677404L36.8672 45.4245L40.2541 46.0697ZM38.5625 47.471L58.5314 47.4503L58.5279 44.0025L38.5589 44.0232L38.5625 47.471ZM58.5296 47.4503H67.1217V44.0025H58.5296V47.4503ZM45.4148 1.42735L56.8596 46.1538L60.1997 45.2991L48.7549 0.572649L45.4148 1.42735ZM62.2314 26.98C60.5163 26.8062 60.5162 26.8065 60.5162 26.807C60.5162 26.8072 60.5161 26.8077 60.5161 26.8082C60.516 26.8092 60.5158 26.8105 60.5157 26.812C60.5154 26.8151 60.5149 26.8193 60.5144 26.8246C60.5134 26.8353 60.5119 26.8504 60.51 26.8699C60.5063 26.9088 60.5011 26.965 60.4946 27.0374C60.4817 27.182 60.4639 27.3914 60.4439 27.6563C60.4039 28.1857 60.3549 28.9384 60.3179 29.8404C60.2441 31.6378 60.2168 34.0573 60.411 36.4953C60.6026 38.8993 61.02 41.4749 61.9155 43.5002C62.8087 45.52 64.4199 47.4558 67.1252 47.4503L67.1183 44.0025C66.4275 44.0039 65.7294 43.5998 65.0688 42.1059C64.4107 40.6175 64.03 38.5057 63.8479 36.2214C63.6686 33.9712 63.6922 31.7015 63.7628 29.9818C63.798 29.1252 63.8444 28.4124 63.8819 27.9159C63.9007 27.6678 63.9171 27.4742 63.9287 27.3441C63.9346 27.279 63.9392 27.2299 63.9422 27.1978C63.9437 27.1818 63.9449 27.17 63.9456 27.1626C63.946 27.1589 63.9462 27.1564 63.9464 27.1549C63.9465 27.1542 63.9465 27.1537 63.9465 27.1536C63.9465 27.1535 63.9465 27.1536 63.9465 27.1535C63.9465 27.1537 63.9465 27.1539 62.2314 26.98ZM67.1185 47.4503C73.7873 47.463 77.1247 41.7815 78.7485 37.0762C79.5906 34.6362 80.066 32.2172 80.3318 30.4225C80.4653 29.5213 80.5473 28.7682 80.5961 28.2366C80.6205 27.9706 80.6367 27.7594 80.6469 27.6123C80.652 27.5387 80.6556 27.4811 80.658 27.4405C80.6592 27.4202 80.6601 27.4042 80.6608 27.3926C80.6611 27.3868 80.6613 27.3821 80.6615 27.3786C80.6616 27.3768 80.6617 27.3753 80.6617 27.374C80.6618 27.3734 80.6618 27.3727 80.6618 27.3724C80.6619 27.3718 80.6619 27.3712 78.9401 27.2857C77.2183 27.2002 77.2183 27.1997 77.2184 27.1994C77.2184 27.1994 77.2184 27.1991 77.2184 27.199C77.2184 27.1989 77.2184 27.1991 77.2184 27.1995C77.2183 27.2004 77.2182 27.2024 77.218 27.2055C77.2177 27.2116 77.2171 27.2221 77.2163 27.2368C77.2145 27.2661 77.2116 27.3121 77.2074 27.3737C77.1988 27.497 77.1847 27.6825 77.1627 27.9212C77.1188 28.3991 77.044 29.0882 76.9212 29.9174C76.6744 31.5836 76.2392 33.7787 75.4894 35.9514C73.9294 40.4717 71.3576 44.0105 67.125 44.0025L67.1185 47.4503ZM77.2162 27.2857V47.6282H80.664V27.2857H77.2162ZM26.4649 27.3327C23.0715 27.0759 19.9134 28.4142 17.6138 30.4237C15.3345 32.4154 13.7124 35.2358 13.6576 38.1548L17.1048 38.2195C17.1369 36.5105 18.135 34.547 19.8825 33.0199C21.6097 31.5105 23.8849 30.5951 26.2047 30.7706L26.4649 27.3327ZM13.6573 38.1871C13.6573 40.5163 14.0326 42.4467 14.9779 43.9504C15.9595 45.5117 17.4117 46.3893 19.0843 46.873C20.7006 47.3405 22.6117 47.4668 24.6716 47.4947C26.6989 47.5222 29.1925 47.4503 31.7685 47.4503V44.0025C28.9957 44.0025 26.7665 44.075 24.7183 44.0472C22.7026 44.0199 21.1855 43.8916 20.0422 43.561C18.9552 43.2466 18.3164 42.7827 17.8969 42.1154C17.4411 41.3904 17.1052 40.2049 17.1052 38.1871H13.6573Z" fill="#EEF1FF"/>
<path d="M76.834 20.7653H100.437L85.0185 45.5906C85.0185 45.5906 109.504 42.9077 109.504 61.6541C109.504 76.7327 78.9395 80.9099 78.9396 52.5866" stroke="#EEF1FF" stroke-width="3.4478" stroke-linejoin="bevel"/>
<path d="M124 8.84892L121.078 4.32819L103.702 17.5389L104.958 19.7464L124 8.84892Z" fill="#EEF1FF"/>
<path d="M61.9453 52.5034L64.5777 46.3802" stroke="#EEF1FF" stroke-width="2.8613"/>
<path d="M35.7363 52.5034L33.1039 46.3802" stroke="#EEF1FF" stroke-width="2.8613"/>
</svg>
