<svg width="59" height="59" viewBox="0 0 59 59" fill="none" xmlns="http://www.w3.org/2000/svg">
<path fill-rule="evenodd" clip-rule="evenodd" d="M3.40968 3.82914C-3.46813e-07 7.23591 0 12.7228 0 23.6937V35.3308C0 46.3017 -3.46813e-07 51.7886 3.40968 55.1954C6.81936 58.6022 12.3034 58.6051 23.2743 58.6051H34.9114C45.8823 58.6051 51.3692 58.6051 54.776 55.1954C58.1827 51.7857 58.1856 46.3017 58.1856 35.3308V23.6937C58.1856 15.4314 58.1856 10.2819 56.731 6.78788V44.0587C55.3479 44.0589 53.9783 43.7867 52.7004 43.2575C51.4225 42.7284 50.2613 41.9528 49.2832 40.9749L47.0955 38.7871C44.995 36.6866 43.9476 35.6392 42.7577 35.197C41.4496 34.7107 40.0103 34.7107 38.7022 35.197C37.5123 35.6392 36.462 36.6866 34.3673 38.7871L34.0357 39.1158C32.3338 40.8178 31.4813 41.6702 30.5766 41.8273C29.8738 41.9511 29.1501 41.8124 28.543 41.4374C27.7633 40.9545 27.2891 39.8461 26.3377 37.6321L26.1835 37.2713C24.0016 32.1801 22.9135 29.6374 21.0108 28.6831C20.0527 28.2028 18.9805 27.9964 17.9124 28.0867C15.7916 28.2671 13.8365 30.2251 9.92065 34.138L4.36392 39.6948V3C4.02645 3.2502 3.70836 3.52658 3.40968 3.82914Z" fill="#E01067"/>
<path d="M2.9082 23.6931C2.9082 18.1247 2.91402 14.2408 3.30968 11.3112C3.6908 8.46592 4.39194 6.95891 5.46255 5.88538C6.53899 4.80895 8.04599 4.11072 10.8913 3.72961C13.8209 3.33394 17.7048 3.32812 23.2732 3.32812H34.9103C40.4787 3.32812 44.3626 3.33394 47.2922 3.72961C50.1375 4.11072 51.6445 4.81186 52.718 5.88247C53.7945 6.95891 54.4927 8.46592 54.8767 11.3112C55.2695 14.2408 55.2753 18.1247 55.2753 23.6931V35.3302C55.2753 40.8986 55.2695 44.7825 54.8767 47.7121C54.4927 50.5574 53.7915 52.0644 52.718 53.1379C51.6445 54.2144 50.1375 54.9126 47.2922 55.2966C44.3626 55.6894 40.4787 55.6952 34.9103 55.6952H23.2732C17.7048 55.6952 13.8209 55.6894 10.8913 55.2966C8.04599 54.9126 6.53899 54.2115 5.46546 53.1379C4.38903 52.0644 3.6908 50.5574 3.30968 47.7121C2.91402 44.7825 2.9082 40.8986 2.9082 35.3302V23.6931Z" stroke="#E01067" stroke-width="5.81856"/>
<path d="M37.8205 26.602C41.034 26.602 43.6391 23.9969 43.6391 20.7834C43.6391 17.5699 41.034 14.9648 37.8205 14.9648C34.607 14.9648 32.002 17.5699 32.002 20.7834C32.002 23.9969 34.607 26.602 37.8205 26.602Z" fill="#E01067"/>
</svg>
